<svg xmlns="http://www.w3.org/2000/svg" viewBox="0 0 96 96" role="img" aria-labelledby="title">
  <title>Cognitive Network</title>
  <defs>
    <linearGradient id="g" x1="0%" y1="0%" x2="100%" y2="100%">
      <stop offset="0%" stop-color="#cb6c42" />
      <stop offset="100%" stop-color="#854426" />
    </linearGradient>
  </defs>
  <rect width="96" height="96" rx="24" fill="#f7f2e8" />
  <rect x="10" y="10" width="76" height="76" rx="20" fill="url(#g)" />
  <path d="M34 30c-8 0-14 6-14 18s6 18 14 18c5 0 9-2 12-6l-6-6c-1 2-3 3-6 3-4 0-7-3-7-9s3-9 7-9c3 0 5 1 6 3l6-6c-3-4-7-6-12-6z" fill="#fff7ef" />
  <path d="M54 29h8l10 20V29h9v38h-8L63 47v20h-9z" fill="#fff7ef" />
</svg>
